<svg xmlns="http://www.w3.org/2000/svg" viewBox="0 0 32 32" fill="none">
<g transform="translate(6 0)">
<path d="M2.60838 22.7953C2.45779 22.8706 2.3825 23.0024 2.3825 23.1906C2.3825 23.4667 2.50172 23.7804 2.74015 24.1318C2.96603 24.4831 3.18564 24.6588 3.39897 24.6588L3.49309 24.64L18.1378 17.2235C18.4641 17.0478 18.6272 16.6714 18.6272 16.0941C18.6272 15.5294 18.4578 15.1592 18.119 14.9835L3.49309 7.54823L3.39897 7.52941C3.18564 7.52941 2.96603 7.7051 2.74015 8.05647C2.50172 8.40784 2.3825 8.72157 2.3825 8.99765C2.3825 9.19843 2.45779 9.33647 2.60838 9.41176L15.8037 16.0941L2.60838 22.7953Z" fill="black"/>
<circle cx="2" cy="2" r="2" transform="matrix(-1 0 0 1 20 7)" fill="black"/>
</g>
</svg>
