<svg width="20" height="32" viewBox="0 0 20 32" fill="none" xmlns="http://www.w3.org/2000/svg">
<path d="M17.3916 22.7953C17.5422 22.8706 17.6175 23.0024 17.6175 23.1906C17.6175 23.4667 17.4983 23.7804 17.2599 24.1318C17.034 24.4831 16.8144 24.6588 16.601 24.6588L16.5069 24.64L1.86221 17.2235C1.53593 17.0478 1.37279 16.6714 1.37279 16.0941C1.37279 15.5294 1.54221 15.1592 1.88103 14.9835L16.5069 7.54823L16.601 7.52941C16.8144 7.52941 17.034 7.7051 17.2599 8.05647C17.4983 8.40784 17.6175 8.72157 17.6175 8.99765C17.6175 9.19843 17.5422 9.33647 17.3916 9.41176L4.19632 16.0941L17.3916 22.7953Z" fill="black"/>
<circle cx="2" cy="9" r="2" fill="black"/>
</svg>
